<svg class="icon" width="20" height="20" viewBox="0 0 20 20" xmlns="http://www.w3.org/2000/svg">
	<path fill-rule="evenodd" clip-rule="evenodd" d="M4.41112 0.134664C4.62557 -0.0448879 4.97327 -0.0448879 5.18772 0.134664L6.40209 1.15141C7.31289 0.711477 8.36973 0.45977 9.49678 0.45977H10.272C11.4 0.45977 12.4576 0.711885 13.3689 1.15248L14.5846 0.134664C14.799 -0.0448879 15.1467 -0.0448879 15.3612 0.134664C15.5756 0.314215 15.5756 0.605325 15.3612 0.784877L14.2803 1.68983C15.6223 2.64234 16.474 4.06412 16.474 5.65247C16.474 5.83171 16.3005 5.97701 16.0864 5.97701H3.68242C3.46835 5.97701 3.2948 5.83171 3.2948 5.65247C3.2948 4.06338 4.14735 2.641 5.49037 1.68849L4.41112 0.784877C4.19667 0.605325 4.19667 0.314215 4.41112 0.134664ZM8.237 3.44828C8.237 3.82916 7.86822 4.13793 7.4133 4.13793C6.95838 4.13793 6.5896 3.82916 6.5896 3.44828C6.5896 3.06739 6.95838 2.75862 7.4133 2.75862C7.86822 2.75862 8.237 3.06739 8.237 3.44828ZM12.3266 4.13793C12.7815 4.13793 13.1503 3.82916 13.1503 3.44828C13.1503 3.06739 12.7815 2.75862 12.3266 2.75862C11.8717 2.75862 11.5029 3.06739 11.5029 3.44828C11.5029 3.82916 11.8717 4.13793 12.3266 4.13793Z" />
	<path d="M1.09827 6.84814C0.491711 6.84814 0 7.25984 0 7.76768V13.2849C0 13.7928 0.491711 14.2045 1.09827 14.2045C1.70482 14.2045 2.19653 13.7928 2.19653 13.2849V7.76768C2.19653 7.25984 1.70482 6.84814 1.09827 6.84814Z" />
	<path d="M4.39307 6.84814C3.78651 6.84814 3.2948 7.25984 3.2948 7.76768V16.0435C3.2948 16.5514 3.78651 16.9631 4.39307 16.9631H15.3757C15.9823 16.9631 16.474 16.5514 16.474 16.0435V7.76768C16.474 7.25984 15.9823 6.84814 15.3757 6.84814H4.39307Z" />
	<path d="M17.8035 7.76768C17.8035 7.25984 18.2952 6.84814 18.9017 6.84814C19.5083 6.84814 20 7.25984 20 7.76768V13.2849C20 13.7928 19.5083 14.2045 18.9017 14.2045C18.2952 14.2045 17.8035 13.7928 17.8035 13.2849V7.76768Z" />
	<path d="M5.26452 17.931C5.08651 17.931 4.9422 18.0519 4.9422 18.2009V18.3908C4.9422 19.2795 5.80269 20 6.86417 20C7.92564 20 8.78613 19.2795 8.78613 18.3908V18.2009C8.78613 18.0519 8.64183 17.931 8.46382 17.931H5.26452Z" />
	<path d="M10.9827 18.2009C10.9827 18.0519 11.127 17.931 11.305 17.931H14.5043C14.6823 17.931 14.8266 18.0519 14.8266 18.2009V18.3908C14.8266 19.2795 13.9661 20 12.9046 20C11.8432 20 10.9827 19.2795 10.9827 18.3908V18.2009Z" />
</svg>
