<svg class="icon" width="20" height="20" viewBox="0 0 20 20" xmlns="http://www.w3.org/2000/svg">
	<path d="M10.0052 4.19119C10.0375 3.35198 10.3144 2.11571 11.2779 1.30354C12.1723 0.549647 13.2611 0.182216 13.9392 0.0142415C14.201 -0.0506072 14.4522 0.114226 14.4393 0.34198C14.3938 1.14535 14.1409 2.34362 13.4881 2.98556C12.8728 3.59069 11.8829 4.39315 10.4329 4.52816C10.1956 4.55026 9.99746 4.39046 10.0052 4.19119Z" />
	<path d="M12.4879 19.5514C13.1841 19.7741 13.8881 19.9993 14.5252 19.9993C15.8881 19.9993 19.8567 17.3738 19.9996 14.6469C20.007 14.5068 19.9068 14.3817 19.7603 14.3133C18.7508 13.8416 17.1023 12.6672 17.0449 10.9587C16.9781 8.96754 18.1754 7.38606 19.0816 6.73187C19.2855 6.58464 19.3556 6.32503 19.1735 6.15901C18.349 5.40723 16.6904 4.37313 15.177 4.39852C14.076 4.41699 13.084 4.75942 12.2327 5.05327C11.5796 5.27872 11.0094 5.47556 10.5363 5.47556C10.0883 5.47556 9.5504 5.27998 8.93305 5.05551C8.10167 4.75321 7.12617 4.39852 6.03189 4.39852C4.00493 4.39852 9.06604e-06 5.80193 0 11.2198C-4.80608e-06 14.0919 3.55103 20.0754 6.54752 19.9993C7.19456 19.9993 7.88606 19.7756 8.57224 19.5536C9.24794 19.335 9.91848 19.1181 10.5363 19.1181C11.1329 19.1181 11.8067 19.3336 12.4879 19.5514Z" />
</svg>
