<svg width="35" height="27" viewBox="0 0 35 27" fill="none" xmlns="http://www.w3.org/2000/svg">
<path d="M28.0477 14.4301C27.195 14.4301 26.3856 14.5914 25.6456 14.884C25.2756 14.0008 25.027 13.2188 25.027 12.7211V9.16094L21.6392 8.69336L21.5149 9.50547L24.1598 9.86914V11.3129L15.7597 15.6879L14.2623 12.1879C14.8 11.9691 14.7971 11.9719 15.2741 11.7066C16.2482 11.1707 16.624 10.3723 15.7221 10.5937C14.7364 10.8344 13.3229 11.4797 11.6001 11.5535C10.0796 11.6191 12.1724 12.8277 13.4616 12.4996L14.9937 16.0871L13.8605 16.6777C12.713 15.3078 10.9381 14.4301 8.95227 14.4301C5.4893 14.4301 2.67383 17.0934 2.67383 20.3664C2.67383 23.6422 5.4893 26.3055 8.95227 26.3055C12.2678 26.3055 14.9908 23.8609 15.2105 20.7766H15.618C15.8002 21.6734 16.5806 22.3734 17.549 22.4883V23.6094H16.6037V24.1563H19.2227V23.6094H18.1271V22.4883C19.24 22.3543 20.1014 21.4547 20.1014 20.3664C20.1014 19.7813 19.8528 19.2562 19.451 18.868L24.261 13.4758C24.3795 13.9953 24.5992 14.6078 24.8709 15.2504C23.018 16.2813 21.7722 18.1898 21.7722 20.3664C21.7722 23.6422 24.5877 26.3055 28.0477 26.3055C31.5107 26.3055 34.3262 23.6422 34.3262 20.3664C34.3262 17.0934 31.5107 14.4301 28.0477 14.4301ZM8.95227 25.2117C6.12812 25.2117 3.83008 23.0379 3.83008 20.3664C3.83008 17.6977 6.12812 15.5238 8.95227 15.5238C10.5016 15.5238 11.8949 16.1801 12.8315 17.2137L8.58805 19.6965C8.27586 19.8551 8.12266 20.1805 8.20937 20.5059C8.29609 20.8313 8.59383 21.05 8.94937 21.05L14.0513 20.7766C13.8316 23.2566 11.629 25.2117 8.95227 25.2117ZM9.35984 20.2297L13.3431 17.8809C13.7362 18.4988 13.9848 19.2043 14.0513 19.9563L9.35984 20.2297ZM15.618 19.9563H15.2105C15.144 19.0129 14.8405 18.1297 14.3577 17.3559L15.3232 16.8527L16.1962 18.8953C15.9071 19.1852 15.699 19.5516 15.618 19.9563ZM18.1271 21.657V20.3664H17.549V21.657C16.9188 21.5313 16.4419 21.0035 16.4419 20.3664C16.4419 19.6391 17.0691 19.0484 17.838 19.0484C18.6098 19.0484 19.2342 19.6391 19.2342 20.3664C19.2342 21.0035 18.7602 21.5313 18.1271 21.657ZM24.1598 12.3164L18.7313 18.4031C18.4566 18.291 18.156 18.2281 17.838 18.2281C17.5143 18.2281 17.205 18.2937 16.9246 18.4113L16.0863 16.4535L24.1598 12.2508V12.3164ZM27.5199 25.1866C25.1172 24.958 23.1811 23.1123 22.9521 20.8381C22.759 18.9202 23.758 17.2005 25.3277 16.2676C26.1021 17.9016 27.3392 19.9718 27.7555 20.7424C27.8671 20.9491 28.1391 21.0246 28.3512 20.9075C28.5498 20.7979 28.6224 20.5605 28.5134 20.3691C27.9535 19.3842 26.7909 17.3512 26.0969 15.8902C26.9308 15.564 27.876 15.4377 28.8629 15.5843C31.0514 15.9094 32.7993 17.5757 33.1156 19.6497C33.5966 22.8071 30.8337 25.5018 27.5199 25.1866Z" fill="#333333"/>
</svg>
