<svg class="icon" width="36" height="20" viewBox="0 0 36 20" xmlns="http://www.w3.org/2000/svg">
	<path d="M28.8592 6.51452C27.8893 6.51452 26.9688 6.69772 26.1271 7.02996C25.7063 6.02701 25.4236 5.13895 25.4236 4.57382V0.530974L21.5704 0L21.429 0.922217L24.4373 1.3352V2.97469L14.8833 7.94287L13.1803 3.96833C13.7918 3.71992 13.7885 3.72302 14.331 3.42183C15.4389 2.81323 15.8663 1.90654 14.8405 2.15805C13.7195 2.4313 12.1118 3.16411 10.1523 3.24794C8.42301 3.32247 10.8033 4.69492 12.2696 4.32231L14.0121 8.39621L12.7233 9.06691C11.4181 7.51126 9.39945 6.51452 7.14082 6.51452C3.20219 6.51452 0 9.53889 0 13.2557C0 16.9756 3.20219 20 7.14082 20C10.9118 20 14.0088 17.224 14.2586 13.7215H14.7222C14.9293 14.7399 15.817 15.5349 16.9184 15.6653V16.9384H15.8433V17.5594H18.8219V16.9384H17.5759V15.6653C18.8416 15.5131 19.8214 14.4915 19.8214 13.2557C19.8214 12.5912 19.5386 11.995 19.0816 11.5541L24.5523 5.43083C24.6871 6.0208 24.937 6.71635 25.246 7.44605C23.1386 8.61667 21.7216 10.784 21.7216 13.2557C21.7216 16.9756 24.9238 20 28.8592 20C32.7978 20 36 16.9756 36 13.2557C36 9.53889 32.7978 6.51452 28.8592 6.51452ZM7.14082 18.758C3.92877 18.758 1.31507 16.2894 1.31507 13.2557C1.31507 10.2251 3.92877 7.75656 7.14082 7.75656C8.90301 7.75656 10.4877 8.50179 11.5529 9.67552L6.72657 12.495C6.37151 12.6751 6.19726 13.0446 6.29589 13.4141C6.39452 13.7836 6.73315 14.032 7.13753 14.032L12.9403 13.7215C12.6904 16.5378 10.1852 18.758 7.14082 18.758ZM7.60438 13.1005L12.1348 10.4332C12.5819 11.1349 12.8647 11.936 12.9403 12.7899L7.60438 13.1005ZM14.7222 12.7899H14.2586C14.183 11.7187 13.8378 10.7157 13.2888 9.83698L14.3868 9.26564L15.3797 11.5852C15.051 11.9143 14.8142 12.3304 14.7222 12.7899ZM17.5759 14.7213V13.2557H16.9184V14.7213C16.2016 14.5785 15.6592 13.9792 15.6592 13.2557C15.6592 12.4297 16.3726 11.759 17.2471 11.759C18.1249 11.759 18.8351 12.4297 18.8351 13.2557C18.8351 13.9792 18.2959 14.5785 17.5759 14.7213ZM24.4373 4.11427L18.263 11.0262C17.9507 10.8989 17.6088 10.8275 17.2471 10.8275C16.8789 10.8275 16.5271 10.902 16.2082 11.0356L15.2548 8.8123L24.4373 4.03975V4.11427ZM28.2588 18.7294C25.5261 18.4698 23.3241 16.3739 23.0637 13.7913C22.8441 11.6134 23.9803 9.66061 25.7655 8.60115C26.6462 10.4568 28.0534 12.8076 28.5268 13.6827C28.6537 13.9174 28.9631 14.0031 29.2044 13.8702C29.4302 13.7457 29.5128 13.4762 29.3888 13.2588C28.752 12.1404 27.4297 9.8317 26.6403 8.17264C27.5888 7.8022 28.6639 7.65875 29.7863 7.82518C32.2754 8.19438 34.2635 10.0866 34.6231 12.4419C35.1702 16.0273 32.0278 19.0874 28.2588 18.7294Z" />
</svg>
