<svg width="18" height="13" viewBox="0 0 18 13" fill="none" xmlns="http://www.w3.org/2000/svg">
<path fill-rule="evenodd" clip-rule="evenodd" d="M2.5822 2.5068C2.82329 1.06024 4.07486 0 5.54138 0H12.4586C13.9251 0 15.1767 1.06024 15.4178 2.5068L15.5 3H16.5C16.7761 3 17 3.22386 17 3.5C17 4.05228 16.5523 4.5 16 4.5H15.75L15.8762 5.25699C17.1226 5.7703 18 6.99697 18 8.42857C18 9.65304 17.1442 10.6776 15.998 10.9367C15.9993 10.9576 16 10.9787 16 11V12C16 12.5523 15.5523 13 15 13H14C13.4477 13 13 12.5523 13 12V11H5V12C5 12.5523 4.55228 13 4 13H3C2.44772 13 2 12.5523 2 12V11C2 10.9787 2.00066 10.9577 2.00197 10.9367C0.855844 10.6776 0 9.65304 0 8.42857C0 6.99697 0.877422 5.7703 2.12384 5.25699L2.25 4.5H2C1.44772 4.5 1 4.05228 1 3.5C1 3.22386 1.22386 3 1.5 3H2.5L2.5822 2.5068ZM4 5H14L13.8346 4.30514C13.5128 2.95373 12.3053 2 10.9161 2H7.08386C5.69468 2 4.48721 2.95373 4.16544 4.30514L4 5ZM14.5 9.28572C15.3284 9.28572 16 9.28572 16 8.00001C16 7.28993 15.8284 7.14287 15 7.14287C14.1716 7.14287 13.5 7.7185 13.5 8.42858C13.5 9.13866 13.6716 9.28572 14.5 9.28572ZM4.5 8.42858C4.5 9.13866 4.32843 9.28572 3.5 9.28572C2.67157 9.28572 2 9.28572 2 8.00001C2 7.28993 2.17157 7.14287 3 7.14287C3.82843 7.14287 4.5 7.7185 4.5 8.42858Z" fill="#222222"/>
</svg>
