<svg class="icon" width="20" height="20" viewBox="0 0 20 20" xmlns="http://www.w3.org/2000/svg">
	<path fill-rule="evenodd" clip-rule="evenodd" d="M3.01543 2.64149C3.19686 1.13418 4.47574 0 5.99393 0H14.0062C15.5244 0 16.8032 1.13418 16.9847 2.64149L17.2223 4.61574H18.389C18.6651 4.61574 18.889 4.83959 18.889 5.11574V5.92348C18.889 6.47577 18.4413 6.92348 17.889 6.92348H17.5001L17.6346 8.04102C19.0288 8.66604 20 10.066 20 11.6929V13.9239C20 15.3118 19.0575 16.4796 17.7776 16.8221V19.0007C17.7776 19.553 17.3299 20.0007 16.7776 20.0007H15.4443C14.892 20.0007 14.4443 19.553 14.4443 19.0007V16.9239H5.55595V19.0007C5.55595 19.553 5.10823 20.0007 4.55595 20.0007H3.22261C2.67033 20.0007 2.22261 19.553 2.22261 19.0007V16.8222C0.942611 16.4797 0 15.3119 0 13.9239V11.6929C0 10.066 0.971231 8.66598 2.3655 8.04098L2.50001 6.92348H2.11133C1.55904 6.92348 1.11133 6.47577 1.11133 5.92348V5.11574C1.11133 4.83959 1.33519 4.61574 1.61133 4.61574H2.77779L3.01543 2.64149ZM4.80916 5.56824C5.05669 4.12868 6.30507 3.07664 7.76576 3.07664H12.2332C13.6939 3.07664 14.9423 4.12868 15.1898 5.56824L15.5551 7.69213H4.44395L4.80916 5.56824ZM16.1111 14.2858C17.0316 14.2858 17.7778 14.2858 17.7778 12.3078C17.7778 11.2153 17.5871 10.989 16.6667 10.989C15.7462 10.989 15 11.8747 15 12.9671C15 14.0596 15.1906 14.2858 16.1111 14.2858ZM5.00043 12.9671C5.00043 14.0596 4.8098 14.2858 3.88932 14.2858C2.96885 14.2858 2.22266 14.2858 2.22266 12.3078C2.22266 11.2153 2.41329 10.989 3.33377 10.989C4.25424 10.989 5.00043 11.8747 5.00043 12.9671Z" />
</svg>
