<svg width="20" height="20" viewBox="0 0 20 20" xmlns="http://www.w3.org/2000/svg">
	<path fill-rule="evenodd" clip-rule="evenodd" d="M0.486446 0.528263C0.798309 0.217445 1.22108 0.0428596 1.66187 0.0428596C2.10265 0.0428596 2.5254 0.217445 2.83728 0.528263L9.97851 7.65419L17.1197 0.528263C17.2721 0.365186 17.4557 0.234397 17.6598 0.143685C17.8638 0.0529733 18.084 0.00419831 18.3074 0.000259135C18.5307 -0.00368004 18.7525 0.0373273 18.9596 0.120802C19.1667 0.204278 19.3548 0.328516 19.5127 0.486127C19.6708 0.643739 19.7953 0.831491 19.8789 1.03814C19.9625 1.24482 20.0037 1.46619 19.9997 1.68904C19.9957 1.91191 19.947 2.13168 19.856 2.33528C19.7651 2.53888 19.634 2.72212 19.4706 2.87406L12.3293 9.99999L19.4706 17.1259C19.634 17.2779 19.7651 17.4612 19.856 17.6648C19.947 17.8684 19.9957 18.0881 19.9997 18.311C20.0037 18.5338 19.9625 18.7551 19.8789 18.9618C19.7953 19.1685 19.6708 19.3562 19.5127 19.5138C19.3548 19.6715 19.1667 19.7957 18.9596 19.8791C18.7525 19.9626 18.5307 20.0037 18.3074 19.9997C18.084 19.9958 17.8638 19.9471 17.6598 19.8563C17.4557 19.7656 17.2721 19.6348 17.1197 19.4717L9.97851 12.3458L2.83728 19.4717C2.52196 19.7649 2.10491 19.9245 1.674 19.917C1.24308 19.9092 0.831953 19.7351 0.527187 19.431C0.222443 19.1269 0.0478819 18.7166 0.040275 18.2866C0.032668 17.8566 0.192636 17.4406 0.486446 17.1259L7.62767 9.99999L0.486446 2.87406C0.17496 2.56287 0 2.141 0 1.70116C0 1.26133 0.17496 0.83948 0.486446 0.528263Z" />
</svg>
