<?xml version="1.0" encoding="iso-8859-1"?>
<!-- Generator: Adobe Illustrator 19.0.0, SVG Export Plug-In . SVG Version: 6.00 Build 0)  -->
<svg class="icon" xmlns="http://www.w3.org/2000/svg" xmlns:xlink="http://www.w3.org/1999/xlink" version="1.1" id="Layer_1" x="0px" y="0px" viewBox="0 0 512 512" style="enable-background:new 0 0 512 512;" xml:space="preserve">
<polyline style="fill:#36CC6B;" points="442.845,503.916 8.623,503.916 8.623,351.299 503.916,351.299 503.916,503.916   470.871,503.916 "/>
<path style="fill:#B0E046;" d="M15.553,471.211c1.823,0,3.569,0.315,5.197,0.889c0.302-13.519,11.346-24.386,24.937-24.386  c12.258,0,22.444,8.842,24.547,20.496c3.607-3.552,8.553-5.742,14.013-5.742c1.469,0,2.9,0.165,4.279,0.466  c3.792-8.943,12.643-15.219,22.969-15.219c12.258,0,22.444,8.842,24.547,20.496c3.607-3.552,8.552-5.742,14.013-5.742  c10.573,0,19.222,8.215,19.926,18.61c0.963-0.257,1.968-0.407,3.011-0.407c6.419,0,11.622,5.203,11.622,11.623  c0,6.418-5.203,11.622-11.622,11.622h-65.808H74.431h-8.931H49.64H8.623v-31.069C10.712,471.806,13.06,471.211,15.553,471.211z"/>
<rect x="39.882" y="351.297" style="fill:#C17A49;" width="286.009" height="25.361"/>
<g style="opacity:0.1;">
	<rect x="39.882" y="351.297" style="fill:#231F20;" width="25.294" height="25.361"/>
</g>
<polygon style="fill:#C17A49;" points="108.698,293.533 82.829,293.533 55.38,293.533 55.38,318.894 310.396,318.894   310.396,293.533 "/>
<g style="opacity:0.1;">
	<polygon style="fill:#231F20;" points="60.696,293.533 58.117,293.533 55.38,293.533 55.38,318.894 80.805,318.894 80.805,293.533     "/>
</g>
<path style="fill:#B0E046;" d="M496.985,318.594c-1.823,0-3.568,0.315-5.195,0.889c-0.303-13.519-11.347-24.386-24.937-24.386  c-12.259,0-22.444,8.842-24.547,20.496c-3.607-3.552-8.554-5.742-14.013-5.742c-1.469,0-2.901,0.165-4.28,0.466  c-3.792-8.943-12.643-15.219-22.969-15.219c-12.257,0-22.444,8.842-24.547,20.496c-3.607-3.552-8.552-5.742-14.013-5.742  c-10.573,0-19.221,8.215-19.926,18.61c-0.963-0.257-1.968-0.407-3.011-0.407c-6.419,0-11.621,5.203-11.621,11.623  c0,6.418,5.202,11.622,11.621,11.622h65.809h32.752h8.933H462.9h41.016v-31.069C501.828,319.189,499.478,318.594,496.985,318.594z"/>
<path style="fill:#36CC6B;" d="M482.268,151.535c0-21.882-12.606-40.812-30.95-49.955c0.704-3.092,1.085-6.307,1.085-9.613  c0-23.914-19.385-43.303-43.303-43.303c-23.913,0-43.301,19.389-43.301,43.303c0,2.74,0.266,5.416,0.751,8.015  c-16.301,1.415-29.096,15.078-29.096,31.745c0,11.192,5.78,21.022,14.506,26.711c-1.234,4.401-1.906,9.038-1.906,13.836  c0,28.262,22.911,51.174,51.173,51.174c15.494,0,29.363-6.896,38.748-17.776C464.265,199.636,482.268,177.692,482.268,151.535z"/>
<g style="opacity:0.1;">
	<path style="fill:#231F20;" d="M407.223,212.912c-19.231-7.99-31.658-26.551-31.658-47.285c0-3.519,0.368-7.054,1.091-10.504   c0.415-1.979-0.312-4.023-1.883-5.295c-7.503-6.075-11.807-15.096-11.807-24.748c0-5.696,1.569-11.316,4.537-16.255   c1.125-1.87,1.01-4.237-0.292-5.99c-1.301-1.753-3.53-2.55-5.649-2.01c-14.193,3.594-24.104,16.301-24.104,30.902   c0,10.804,5.423,20.79,14.506,26.711h-0.001c-1.264,4.51-1.906,9.165-1.906,13.836c0,28.218,22.956,51.174,51.173,51.174   c1.463,0,2.943-0.064,4.396-0.191c2.472-0.216,4.478-2.092,4.857-4.547C410.86,216.26,409.515,213.865,407.223,212.912z"/>
	<path style="fill:#231F20;" d="M369.395,101.179c0.656,0.268,1.347,0.399,2.034,0.399c1.221,0,2.428-0.415,3.406-1.213   c3.659-2.984,7.982-5.145,12.501-6.252c2.557-0.626,4.288-3.008,4.093-5.634c-0.078-1.057-0.117-2.121-0.117-3.16   c0-9.247,2.851-18.048,8.246-25.453c1.413-1.938,1.373-4.577-0.095-6.474c-1.467-1.895-4.013-2.594-6.243-1.712   C376.564,58.267,365.8,74.08,365.8,91.966c0,1.59,0.092,3.212,0.274,4.826C366.294,98.751,367.569,100.434,369.395,101.179z"/>
</g>
<path style="fill:#FFA233;" d="M64.144,113.912c6.367,6.369,15.165,10.309,24.883,10.309c19.438,0,35.194-15.757,35.194-35.193  s-15.757-35.192-35.194-35.192c-19.436,0-35.192,15.756-35.192,35.192C53.834,98.745,57.775,107.544,64.144,113.912"/>
<path style="fill:#85C8EB;" d="M226.55,218.167h10.633c9.979,0,18.061-8.086,18.061-18.061c0-3.352-0.926-6.476-2.516-9.165h37.629  c9.977,0,18.061-8.087,18.061-18.062c0-9.977-8.084-18.063-18.061-18.063h-84.726c-9.975,0-18.061,8.086-18.061,18.063  c0,3.349,0.926,6.475,2.516,9.164h-37.626c-9.978,0-18.064,8.086-18.064,18.063c0,9.975,8.086,18.061,18.064,18.061h51.196"/>
<g style="opacity:0.1;">
	<rect x="16.768" y="354.821" style="fill:#231F20;" width="17.246" height="143.64"/>
</g>
<g>
	<path style="fill:#231F20;" d="M89.028,132.305c-11.56,0-22.428-4.502-30.6-12.678c-8.174-8.173-12.676-19.041-12.676-30.6   c0-23.864,19.414-43.276,43.276-43.276c23.865,0,43.279,19.414,43.279,43.276S112.891,132.305,89.028,132.305z M89.028,61.919   c-14.948,0-27.108,12.161-27.108,27.108c0,7.24,2.82,14.047,7.941,19.167c5.12,5.122,11.927,7.942,19.167,7.942   c14.949,0,27.11-12.161,27.11-27.109C116.138,74.08,103.976,61.919,89.028,61.919z"/>
	<path style="fill:#231F20;" d="M169.971,97.112h-22.875c-4.465,0-8.084-3.618-8.084-8.084c0-4.466,3.62-8.084,8.084-8.084h22.875   c4.465,0,8.084,3.618,8.084,8.084C178.055,93.493,174.437,97.112,169.971,97.112z"/>
	<path style="fill:#231F20;" d="M30.96,97.112H8.084C3.62,97.112,0,93.493,0,89.028c0-4.466,3.62-8.084,8.084-8.084H30.96   c4.465,0,8.084,3.618,8.084,8.084C39.045,93.493,35.425,97.112,30.96,97.112z"/>
	<path style="fill:#231F20;" d="M130.089,56.052c-2.07,0-4.137-0.789-5.716-2.367c-3.157-3.157-3.157-8.276-0.001-11.432   l16.176-16.177c3.158-3.158,8.275-3.157,11.433-0.001c3.157,3.157,3.157,8.276,0.001,11.433l-16.176,16.177   C134.227,55.263,132.159,56.052,130.089,56.052z"/>
	<path style="fill:#231F20;" d="M31.791,154.348c-2.068,0-4.137-0.789-5.716-2.367c-3.157-3.157-3.157-8.276-0.001-11.432   l16.176-16.177c3.158-3.158,8.275-3.157,11.433-0.001c3.157,3.157,3.157,8.276,0,11.432L37.508,151.98   C35.929,153.559,33.861,154.348,31.791,154.348z"/>
	<path style="fill:#231F20;" d="M89.028,39.042L89.028,39.042c-4.466,0-8.084-3.62-8.084-8.084l0.001-22.874   c0-4.466,3.62-8.084,8.084-8.084l0,0c4.465,0,8.084,3.62,8.084,8.084l-0.001,22.874C97.112,35.423,93.491,39.042,89.028,39.042z"/>
	<path style="fill:#231F20;" d="M89.028,178.055c-4.465,0-8.084-3.618-8.084-8.084v-22.876c0-4.466,3.62-8.084,8.084-8.084   s8.084,3.618,8.084,8.084v22.876C97.112,174.437,93.492,178.055,89.028,178.055z"/>
	<path style="fill:#231F20;" d="M47.967,56.052c-2.068,0-4.138-0.789-5.716-2.367L26.075,37.509c-3.157-3.158-3.157-8.276,0-11.433   c3.157-3.156,8.276-3.156,11.433,0l16.176,16.176c3.157,3.158,3.157,8.276,0,11.433C52.105,55.263,50.036,56.052,47.967,56.052z"/>
	<path style="fill:#231F20;" d="M146.265,154.349c-2.068,0-4.138-0.789-5.716-2.367l-16.176-16.176   c-3.157-3.158-3.157-8.276,0-11.433c3.157-3.156,8.276-3.156,11.432,0l16.176,16.176c3.157,3.158,3.157,8.276,0,11.433   C150.403,153.56,148.334,154.349,146.265,154.349z"/>
	<path style="fill:#231F20;" d="M237.183,226.251H226.55c-4.465,0-8.084-3.618-8.084-8.084s3.62-8.084,8.084-8.084h10.633   c5.502,0,9.977-4.475,9.977-9.977c0-1.79-0.468-3.49-1.39-5.053c-1.478-2.499-1.5-5.598-0.063-8.119   c1.438-2.521,4.119-4.078,7.021-4.078h37.629c5.5,0,9.977-4.475,9.977-9.978c0-5.503-4.475-9.979-9.977-9.979h-84.726   c-5.502,0-9.977,4.477-9.977,9.979c0,1.789,0.468,3.489,1.392,5.051c1.478,2.499,1.5,5.598,0.063,8.119   c-1.438,2.521-4.119,4.078-7.021,4.078h-37.626c-5.503,0-9.98,4.477-9.98,9.979c0,5.502,4.477,9.977,9.98,9.977h51.196   c4.465,0,8.084,3.618,8.084,8.084s-3.62,8.084-8.084,8.084h-51.196c-14.418,0-26.149-11.729-26.149-26.145   c0-14.418,11.73-26.148,26.149-26.148h27.049c-0.015-0.359-0.023-0.72-0.023-1.08c0-14.418,11.729-26.148,26.145-26.148h84.726   c14.417,0,26.145,11.73,26.145,26.148c0,14.417-11.729,26.146-26.145,26.146h-27.052c0.015,0.36,0.022,0.72,0.022,1.081   C263.33,214.524,251.6,226.251,237.183,226.251z"/>
	<path style="fill:#231F20;" d="M310.396,355.157c-4.465,0-8.084-3.618-8.084-8.084v-69.774c0-4.466,3.62-8.084,8.084-8.084   c4.466,0,8.084,3.618,8.084,8.084v69.774C318.48,351.538,314.861,355.157,310.396,355.157z"/>
	<path style="fill:#231F20;" d="M507.519,312.993c-2.86-1.424-5.897-2.241-9.048-2.436c-4.127-13.57-16.842-23.543-31.619-23.543   c-12.111,0-22.889,6.545-28.641,16.551c-3.049-1.15-6.307-1.766-9.653-1.797c-2.76-4.164-6.406-7.591-10.613-10.098v-27.645   l22.53-10.37c4.056-1.866,5.83-6.668,3.963-10.723c-1.865-4.055-6.667-5.832-10.723-3.963l-15.771,7.259v-17.123   c10.009-2.949,19.156-8.506,26.438-16.248c27.193-7.906,45.968-32.767,45.968-61.322c0-22.354-11.407-42.632-30.143-54.244   c0.185-1.772,0.279-3.55,0.279-5.323c0-28.335-23.053-51.388-51.388-51.388c-28.334,0-51.385,23.053-51.385,51.388   c0,0.499,0.008,0.999,0.023,1.5c-16.63,4.954-28.366,20.194-28.366,38.26c0,11.596,4.979,22.437,13.551,29.974   c-0.633,3.487-0.952,7.027-0.952,10.574c0,32.675,26.582,59.259,59.257,59.259c0.183,0,0.365-0.013,0.55-0.014v55.517   c-0.245-0.005-0.487-0.023-0.734-0.023c-12.111,0-22.889,6.545-28.641,16.551c-3.13-1.181-6.479-1.798-9.919-1.798   c-12.024,0-22.439,7.683-26.378,18.503c-9.23,1.633-16.264,9.714-16.264,19.406c0,1.209,0.126,2.389,0.335,3.538H63.464v-16.236   h246.931c4.466,0,8.084-3.618,8.084-8.084v-25.36c0-4.466-3.618-8.084-8.084-8.084H108.698c-4.465,0-8.084,3.618-8.084,8.084   s3.62,8.084,8.084,8.084h193.614v9.191H63.464v-9.191h19.363c4.465,0,8.084-3.618,8.084-8.084s-3.62-8.084-8.084-8.084H63.464   v-8.152c0-4.466-3.62-8.084-8.084-8.084s-8.084,3.618-8.084,8.084v16.236v25.36v24.321h-7.414H8.623   c-4.465,0-8.084,3.618-8.084,8.084v121.548v31.069c0,4.466,3.62,8.084,8.084,8.084H172.99h269.854c4.466,0,8.084-3.618,8.084-8.084   s-3.618-8.084-8.084-8.084H192.361c0.209-1.15,0.335-2.328,0.335-3.538c0-9.692-7.033-17.773-16.264-19.406   c-3.938-10.82-14.353-18.503-26.378-18.503c-3.44,0-6.789,0.617-9.919,1.798c-5.752-10.006-16.53-16.551-28.642-16.551   c-11.215,0-21.47,5.636-27.514,14.754c-3.346,0.031-6.603,0.647-9.651,1.797c-5.752-10.006-16.53-16.551-28.642-16.551   c-12.41,0-23.343,7.046-28.979,17.336v-97.583h15.091v17.276c0,4.466,3.62,8.084,8.084,8.084h7.414v19.658h-7.952   c-4.465,0-8.084,3.618-8.084,8.084c0,4.466,3.62,8.084,8.084,8.084h308.648c4.466,0,8.084-3.618,8.084-8.084   c0-4.466-3.618-8.084-8.084-8.084H318.48v-19.659h7.414c4.466,0,8.084-3.618,8.084-8.084v-17.277h5.569h156.284v136.449h-24.961   c-4.466,0-8.084,3.618-8.084,8.084s3.618,8.084,8.084,8.084h33.045c4.466,0,8.084-3.618,8.084-8.084V351.299V320.23   C512,317.163,510.265,314.36,507.519,312.993z M18.057,479.725c2.445,0.863,5.153,0.502,7.287-0.971   c2.133-1.472,3.43-3.88,3.487-6.471c0.203-9.09,7.764-16.483,16.855-16.483c8.166,0,15.143,5.823,16.592,13.848   c0.532,2.949,2.654,5.364,5.511,6.269c2.855,0.905,5.981,0.157,8.118-1.946c2.839-2.795,6.859-4.011,10.901-3.138   c3.8,0.829,7.644-1.166,9.162-4.743c2.649-6.252,8.744-10.291,15.525-10.291c8.166,0,15.143,5.823,16.592,13.848   c0.532,2.949,2.654,5.364,5.511,6.269c2.856,0.905,5.981,0.157,8.118-1.946c2.238-2.204,5.2-3.418,8.34-3.418   c6.23,0,11.44,4.863,11.86,11.071c0.163,2.41,1.396,4.622,3.361,6.028c1.965,1.407,4.454,1.859,6.79,1.236   c0.337-0.089,0.64-0.134,0.925-0.134c1.951,0,3.538,1.588,3.538,3.539s-1.587,3.538-3.538,3.538H16.707v-16.448   C17.167,479.455,17.617,479.568,18.057,479.725z M302.312,404.402H63.464v-19.659h238.846v19.659H302.312z M317.81,368.575H47.966   v-9.192H317.81L317.81,368.575L317.81,368.575z M401.228,215.366c-23.759,0-43.089-19.331-43.089-43.091   c0-3.933,0.54-7.854,1.606-11.652c0.954-3.401-0.411-7.028-3.368-8.956c-6.786-4.425-10.838-11.879-10.838-19.94   c0-12.228,9.537-22.634,21.712-23.691c2.272-0.197,4.357-1.346,5.737-3.164c1.38-1.817,1.928-4.132,1.509-6.375   c-0.407-2.182-0.613-4.379-0.613-6.531c0-19.42,15.798-35.219,35.217-35.219c19.42,0,35.219,15.799,35.219,35.219   c0,2.613-0.296,5.243-0.883,7.818c-0.828,3.636,0.938,7.366,4.276,9.031c16.328,8.138,26.472,24.506,26.472,42.719   c0,21.964-14.868,41.001-36.158,46.293c-1.622,0.403-3.08,1.299-4.17,2.564c-4.399,5.1-9.863,9.021-15.91,11.573v-61.985   c0-4.466-3.618-8.084-8.084-8.084c-4.466,0-8.084,3.618-8.084,8.084v23.491l-13.343-11.329c-3.404-2.892-8.506-2.474-11.394,0.929   c-2.891,3.404-2.474,8.506,0.929,11.394l23.809,20.215v20.669C401.594,215.353,401.412,215.366,401.228,215.366z M495.832,343.215   H339.548c-1.951,0-3.537-1.588-3.537-3.538c0-1.952,1.587-3.539,3.537-3.539c0.286,0,0.589,0.044,0.925,0.134   c2.333,0.62,4.825,0.168,6.79-1.235c1.965-1.407,3.198-3.616,3.361-6.028c0.423-6.21,5.632-11.072,11.861-11.072   c3.14,0,6.102,1.214,8.34,3.418c2.135,2.103,5.259,2.852,8.118,1.946c2.856-0.907,4.978-3.32,5.51-6.269   c1.449-8.024,8.425-13.848,16.592-13.848c6.781,0,12.875,4.039,15.525,10.291c1.518,3.576,5.363,5.569,9.162,4.743   c4.033-0.873,8.062,0.341,10.901,3.138c2.136,2.103,5.26,2.852,8.118,1.946c2.856-0.907,4.978-3.32,5.51-6.269   c1.449-8.024,8.425-13.848,16.591-13.848c9.09,0,16.65,7.394,16.855,16.483c0.058,2.591,1.355,4.998,3.487,6.471   c2.132,1.473,4.843,1.837,7.287,0.971c0.44-0.156,0.891-0.269,1.351-0.34v16.446H495.832z"/>
	<path style="fill:#231F20;" d="M258.059,132.305h-68.01c-4.465,0-8.084-3.618-8.084-8.084c0-4.466,3.62-8.084,8.084-8.084h68.01   c4.466,0,8.084,3.618,8.084,8.084C266.143,128.687,262.524,132.305,258.059,132.305z"/>
	<path style="fill:#231F20;" d="M296.946,132.305h-11.474c-4.466,0-8.084-3.618-8.084-8.084c0-4.466,3.618-8.084,8.084-8.084h11.474   c4.466,0,8.084,3.618,8.084,8.084C305.03,128.687,301.412,132.305,296.946,132.305z"/>
</g>
<g>
</g>
<g>
</g>
<g>
</g>
<g>
</g>
<g>
</g>
<g>
</g>
<g>
</g>
<g>
</g>
<g>
</g>
<g>
</g>
<g>
</g>
<g>
</g>
<g>
</g>
<g>
</g>
<g>
</g>
</svg>
