<svg class="icon" width="20" height="20" viewBox="0 0 20 20" xmlns="http://www.w3.org/2000/svg">
	<path fill-rule="evenodd" clip-rule="evenodd" d="M20 10C20 10.3301 19.8404 10.6343 19.583 10.7947L17.1156 12.3316C12.2384 15.3696 7.09702 17.8408 1.77167 19.7067L1.05266 19.9586C0.806462 20.0449 0.538353 19.9946 0.330538 19.8233C0.122724 19.652 4.69387e-08 19.3801 5.958e-08 19.0909L3.64235e-07 12.1212C3.84953e-07 11.6472 0.324773 11.2528 0.746153 11.215L0.991912 11.193C3.31781 10.9843 5.62581 10.5853 7.89751 9.99961C5.59391 9.4058 3.25299 9.00392 0.893947 8.79789L0.747844 8.78513C0.325747 8.74827 5.28927e-07 8.35348 5.49677e-07 7.87879L8.54332e-07 0.909097C8.66973e-07 0.619898 0.122725 0.347954 0.330539 0.176651C0.538354 0.00534843 0.806463 -0.0448724 1.05266 0.0413882L1.77166 0.29331C7.09702 2.1592 12.2384 4.6304 17.1156 7.66839L19.583 9.20531C19.8404 9.36564 20 9.66984 20 10ZM17.5196 10L16.328 9.25776C11.6493 6.34342 6.72267 3.96122 1.62162 2.14653L1.62162 7.0419C4.78928 7.36222 7.92247 8.02443 10.9776 9.01961L11.3073 9.127C11.6539 9.23992 11.8922 9.59616 11.8919 10.0009C11.8915 10.4056 11.6526 10.7613 11.3058 10.8735L10.8835 11.01C7.85818 11.9884 4.75679 12.6404 1.62162 12.9576L1.62162 17.8535C6.72266 16.0388 11.6493 13.6566 16.328 10.7422L17.5196 10Z" />
</svg>
