<svg class="icon" width="20" height="20" viewBox="0 0 20 20" xmlns="http://www.w3.org/2000/svg">
<path d="M3.125 15.3846H0.625C0.45924 15.3846 0.300269 15.4657 0.183058 15.6099C0.065848 15.7542 0 15.9498 0 16.1538L0 19.2308C0 19.4348 0.065848 19.6304 0.183058 19.7747C0.300269 19.919 0.45924 20 0.625 20H3.125C3.29076 20 3.44973 19.919 3.56694 19.7747C3.68415 19.6304 3.75 19.4348 3.75 19.2308V16.1538C3.75 15.9498 3.68415 15.7542 3.56694 15.6099C3.44973 15.4657 3.29076 15.3846 3.125 15.3846ZM3.125 0H0.625C0.45924 0 0.300269 0.0810437 0.183058 0.225302C0.065848 0.369561 0 0.565218 0 0.769231L0 3.84615C0 4.05017 0.065848 4.24582 0.183058 4.39008C0.300269 4.53434 0.45924 4.61538 0.625 4.61538H3.125C3.29076 4.61538 3.44973 4.53434 3.56694 4.39008C3.68415 4.24582 3.75 4.05017 3.75 3.84615V0.769231C3.75 0.565218 3.68415 0.369561 3.56694 0.225302C3.44973 0.0810437 3.29076 0 3.125 0V0ZM3.125 7.69231H0.625C0.45924 7.69231 0.300269 7.77335 0.183058 7.91761C0.065848 8.06187 0 8.25753 0 8.46154L0 11.5385C0 11.7425 0.065848 11.9381 0.183058 12.0824C0.300269 12.2266 0.45924 12.3077 0.625 12.3077H3.125C3.29076 12.3077 3.44973 12.2266 3.56694 12.0824C3.68415 11.9381 3.75 11.7425 3.75 11.5385V8.46154C3.75 8.25753 3.68415 8.06187 3.56694 7.91761C3.44973 7.77335 3.29076 7.69231 3.125 7.69231ZM19.375 16.1538H6.875C6.70924 16.1538 6.55027 16.2349 6.43306 16.3791C6.31585 16.5234 6.25 16.7191 6.25 16.9231V18.4615C6.25 18.6656 6.31585 18.8612 6.43306 19.0055C6.55027 19.1497 6.70924 19.2308 6.875 19.2308H19.375C19.5408 19.2308 19.6997 19.1497 19.8169 19.0055C19.9342 18.8612 20 18.6656 20 18.4615V16.9231C20 16.7191 19.9342 16.5234 19.8169 16.3791C19.6997 16.2349 19.5408 16.1538 19.375 16.1538ZM19.375 0.769231H6.875C6.70924 0.769231 6.55027 0.850275 6.43306 0.994533C6.31585 1.13879 6.25 1.33445 6.25 1.53846V3.07692C6.25 3.28094 6.31585 3.47659 6.43306 3.62085C6.55027 3.76511 6.70924 3.84615 6.875 3.84615H19.375C19.5408 3.84615 19.6997 3.76511 19.8169 3.62085C19.9342 3.47659 20 3.28094 20 3.07692V1.53846C20 1.33445 19.9342 1.13879 19.8169 0.994533C19.6997 0.850275 19.5408 0.769231 19.375 0.769231V0.769231ZM19.375 8.46154H6.875C6.70924 8.46154 6.55027 8.54258 6.43306 8.68684C6.31585 8.8311 6.25 9.02676 6.25 9.23077V10.7692C6.25 10.9732 6.31585 11.1689 6.43306 11.3132C6.55027 11.4574 6.70924 11.5385 6.875 11.5385H19.375C19.5408 11.5385 19.6997 11.4574 19.8169 11.3132C19.9342 11.1689 20 10.9732 20 10.7692V9.23077C20 9.02676 19.9342 8.8311 19.8169 8.68684C19.6997 8.54258 19.5408 8.46154 19.375 8.46154Z" />
</svg>
