<svg width="22" height="18" viewBox="0 0 22 18" fill="none" xmlns="http://www.w3.org/2000/svg">
<path d="M3.4375 13.8462H0.6875C0.505164 13.8462 0.330295 13.9191 0.201364 14.0489C0.0724328 14.1788 0 14.3549 0 14.5385L0 17.3077C0 17.4913 0.0724328 17.6674 0.201364 17.7972C0.330295 17.9271 0.505164 18 0.6875 18H3.4375C3.61984 18 3.7947 17.9271 3.92364 17.7972C4.05257 17.6674 4.125 17.4913 4.125 17.3077V14.5385C4.125 14.3549 4.05257 14.1788 3.92364 14.0489C3.7947 13.9191 3.61984 13.8462 3.4375 13.8462ZM3.4375 0H0.6875C0.505164 0 0.330295 0.0729393 0.201364 0.202772C0.0724328 0.332605 0 0.508696 0 0.692308L0 3.46154C0 3.64515 0.0724328 3.82124 0.201364 3.95107C0.330295 4.08091 0.505164 4.15385 0.6875 4.15385H3.4375C3.61984 4.15385 3.7947 4.08091 3.92364 3.95107C4.05257 3.82124 4.125 3.64515 4.125 3.46154V0.692308C4.125 0.508696 4.05257 0.332605 3.92364 0.202772C3.7947 0.0729393 3.61984 0 3.4375 0ZM3.4375 6.92308H0.6875C0.505164 6.92308 0.330295 6.99602 0.201364 7.12585C0.0724328 7.25568 0 7.43177 0 7.61539L0 10.3846C0 10.5682 0.0724328 10.7443 0.201364 10.8742C0.330295 11.004 0.505164 11.0769 0.6875 11.0769H3.4375C3.61984 11.0769 3.7947 11.004 3.92364 10.8742C4.05257 10.7443 4.125 10.5682 4.125 10.3846V7.61539C4.125 7.43177 4.05257 7.25568 3.92364 7.12585C3.7947 6.99602 3.61984 6.92308 3.4375 6.92308ZM21.3125 14.5385H7.5625C7.38016 14.5385 7.2053 14.6114 7.07636 14.7412C6.94743 14.8711 6.875 15.0472 6.875 15.2308V16.6154C6.875 16.799 6.94743 16.9751 7.07636 17.1049C7.2053 17.2348 7.38016 17.3077 7.5625 17.3077H21.3125C21.4948 17.3077 21.6697 17.2348 21.7986 17.1049C21.9276 16.9751 22 16.799 22 16.6154V15.2308C22 15.0472 21.9276 14.8711 21.7986 14.7412C21.6697 14.6114 21.4948 14.5385 21.3125 14.5385ZM21.3125 0.692308H7.5625C7.38016 0.692308 7.2053 0.765247 7.07636 0.89508C6.94743 1.02491 6.875 1.201 6.875 1.38462V2.76923C6.875 2.95284 6.94743 3.12893 7.07636 3.25877C7.2053 3.3886 7.38016 3.46154 7.5625 3.46154H21.3125C21.4948 3.46154 21.6697 3.3886 21.7986 3.25877C21.9276 3.12893 22 2.95284 22 2.76923V1.38462C22 1.201 21.9276 1.02491 21.7986 0.89508C21.6697 0.765247 21.4948 0.692308 21.3125 0.692308ZM21.3125 7.61539H7.5625C7.38016 7.61539 7.2053 7.68832 7.07636 7.81816C6.94743 7.94799 6.875 8.12408 6.875 8.30769V9.69231C6.875 9.87592 6.94743 10.052 7.07636 10.1818C7.2053 10.3117 7.38016 10.3846 7.5625 10.3846H21.3125C21.4948 10.3846 21.6697 10.3117 21.7986 10.1818C21.9276 10.052 22 9.87592 22 9.69231V8.30769C22 8.12408 21.9276 7.94799 21.7986 7.81816C21.6697 7.68832 21.4948 7.61539 21.3125 7.61539Z" fill="black"/>
</svg>
