<svg class="icon" width="17" height="20" viewBox="0 0 17 20" xmlns="http://www.w3.org/2000/svg">
	<path fill-rule="evenodd" clip-rule="evenodd" d="M3.75329 8.46763C3.75329 5.92894 5.87846 3.87092 8.5 3.87092C11.1215 3.87092 13.2467 5.92894 13.2467 8.46763C13.2467 11.0063 11.1215 13.0643 8.5 13.0643C5.87846 13.0643 3.75329 11.0063 3.75329 8.46763ZM8.5 5.32251C6.70632 5.32251 5.25225 6.73063 5.25225 8.46763C5.25225 10.2046 6.70632 11.6128 8.5 11.6128C10.2937 11.6128 11.7478 10.2046 11.7478 8.46763C11.7478 6.73063 10.2937 5.32251 8.5 5.32251Z" />
	<path fill-rule="evenodd" clip-rule="evenodd" d="M0.0302268 7.36137C0.384309 3.20148 3.97398 0 8.28418 0H8.71582C13.026 0 16.6157 3.20148 16.9698 7.36137C17.16 9.596 16.4472 11.8149 14.9816 13.5507L10.1918 19.2233C9.31741 20.2589 7.68259 20.2589 6.8082 19.2233L2.01845 13.5507C0.552807 11.8149 -0.159981 9.596 0.0302268 7.36137ZM8.28418 1.45159C4.75409 1.45159 1.81412 4.07363 1.52412 7.48062C1.36582 9.34044 1.95905 11.1872 3.17887 12.6318L7.96861 18.3045C8.24326 18.6297 8.75674 18.6297 9.03139 18.3045L13.8211 12.6318C15.041 11.1872 15.6342 9.34044 15.4759 7.48062C15.1859 4.07363 12.2459 1.45159 8.71582 1.45159H8.28418Z" />
</svg>
