<svg width="20" height="20" viewBox="0 0 20 20" xmlns="http://www.w3.org/2000/svg">
	<path d="M0 3.82411V19.2848C0 19.7902 0.396875 20.1357 0.761806 19.9482L5.55556 17.1429V0L0.698611 2.49777C0.492423 2.6038 0.31567 2.78682 0.191149 3.02323C0.066628 3.25964 4.93822e-05 3.53859 0 3.82411H0ZM6.66667 17.1429L13.3333 20V2.85714L6.66667 0V17.1429ZM19.2382 0.0517857L14.4444 2.85714V20L19.3014 17.5022C19.5076 17.3963 19.6844 17.2132 19.8089 16.9768C19.9334 16.7404 20 16.4614 20 16.1759V0.715179C20 0.209821 19.6031 -0.135714 19.2382 0.0517857V0.0517857Z" />
</svg>
