<svg width="27" height="21" viewBox="0 0 27 21" fill="none" xmlns="http://www.w3.org/2000/svg">
<path d="M0 4.01531V20.2491C0 20.7797 0.535781 21.1425 1.02844 20.9456L7.5 18V0L0.943125 2.62266C0.664771 2.73399 0.426155 2.92616 0.258051 3.17439C0.0899478 3.42262 6.6666e-05 3.71552 0 4.01531H0ZM9 18L18 21V3L9 0V18ZM25.9716 0.054375L19.5 3V21L26.0569 18.3773C26.3353 18.2661 26.5739 18.0739 26.742 17.8257C26.9101 17.5774 27 17.2845 27 16.9847V0.750938C27 0.220313 26.4642 -0.1425 25.9716 0.054375Z" fill="black"/>
</svg>
