<svg class="icon" width="23" height="23" viewBox="0 0 23 23" xmlns="http://www.w3.org/2000/svg">
	<path fill-rule="evenodd" clip-rule="evenodd" d="M8.30045 3.06003C11.7742 2.76035 14.6669 5.20173 14.9352 8.31114C15.2034 11.4205 12.7716 14.3213 9.2978 14.6209C5.82404 14.9206 2.93135 12.4792 2.66311 9.36983C2.39486 6.26043 4.82669 3.3597 8.30045 3.06003ZM8.12856 1.06743C12.6179 0.680139 16.5574 3.8463 16.9278 8.13924C17.0915 10.0372 16.5302 11.8376 15.4649 13.2893L21.8469 18.8472C22.2613 19.208 22.301 19.8393 21.9356 20.2572C21.5703 20.675 20.9382 20.7212 20.5238 20.3603L14.0809 14.7495C12.8262 15.7806 11.2371 16.4611 9.4697 16.6135C4.98039 17.0008 1.04085 13.8347 0.670507 9.54173C0.30016 5.24879 3.63924 1.45472 8.12856 1.06743Z" />
</svg>
