<svg width="20" height="20" viewBox="0 0 20 20" xmlns="http://www.w3.org/2000/svg">
	<path fill-rule="evenodd" clip-rule="evenodd" d="M8.79618 20C8.7164 19.9999 8.63893 19.9733 8.576 19.9242C8.51307 19.8752 8.46828 19.8066 8.44871 19.7292L7.83113 17.2595C7.3415 17.1068 6.86812 16.9062 6.41789 16.6606L4.22168 17.9791C4.15314 18.0199 4.07301 18.0368 3.99382 18.0272C3.91464 18.0175 3.84091 17.9819 3.78419 17.9258L2.07749 16.219C2.02109 16.1625 1.98521 16.0887 1.97554 16.0095C1.96587 15.9302 1.98299 15.8499 2.02415 15.7815L3.34267 13.5879C3.09957 13.1383 2.90271 12.6652 2.75511 12.1759L0.272102 11.5543C0.194682 11.5349 0.125918 11.4903 0.0766501 11.4275C0.0273826 11.3647 0.000420578 11.2873 0 11.2075V8.79648C0 8.63107 0.113372 8.48768 0.272102 8.44899L2.74043 7.83273C2.89183 7.34652 3.09324 6.87298 3.34067 6.41678L2.02215 4.2205C1.981 4.15182 1.96391 4.07139 1.97357 3.99191C1.98323 3.91244 2.01909 3.83845 2.0755 3.78164L3.77951 2.07757C3.83582 2.02033 3.9099 1.98389 3.98961 1.97419C4.06932 1.9645 4.14997 1.98213 4.21836 2.02421L6.41457 3.34144C6.86412 3.09965 7.33664 2.90327 7.82513 2.75519L8.44537 0.272121C8.4648 0.194588 8.50951 0.12574 8.57244 0.0764593C8.63537 0.0271786 8.71292 0.000272738 8.79284 0H11.2038C11.3679 0 11.5126 0.112052 11.5513 0.272121L12.1689 2.74319C12.6577 2.89607 13.1305 3.09597 13.5808 3.34011L15.7796 2.02021C15.8486 1.98067 15.9286 1.96461 16.0075 1.97448C16.0864 1.98434 16.16 2.01958 16.2172 2.07489L17.9212 3.77897C17.9781 3.83544 18.0144 3.90938 18.0243 3.98895C18.0343 4.06852 18.0172 4.14912 17.9759 4.21783L16.6573 6.41678C16.8994 6.86764 17.0962 7.34051 17.2422 7.82339L19.7279 8.44633C19.8879 8.48568 20 8.62974 20 8.79381V11.2022C20.0001 11.2822 19.9733 11.3599 19.924 11.4229C19.8746 11.4859 19.8056 11.5306 19.7279 11.5497L17.2422 12.1726C17.0962 12.6595 16.8994 13.1324 16.6587 13.5806L17.9785 15.7782C18.0198 15.8469 18.0369 15.9275 18.027 16.007C18.0171 16.0866 17.9808 16.1606 17.9238 16.217L16.2198 17.9238C16.1629 17.9795 16.0893 18.015 16.0103 18.0249C15.9313 18.0347 15.8512 18.0184 15.7823 17.9785L13.5834 16.6586C13.1299 16.906 12.6557 17.1054 12.1702 17.2575L11.5553 19.7272C11.5354 19.8047 11.4904 19.8733 11.4273 19.9223C11.3641 19.9714 11.2864 19.998 11.2065 19.998L8.79618 20V20ZM6.41123 15.8862C6.47259 15.8862 6.53528 15.9016 6.5913 15.9342C7.11751 16.2377 7.6684 16.4711 8.22729 16.6259C8.28828 16.6437 8.34355 16.6771 8.38765 16.7228C8.43175 16.7686 8.46316 16.8251 8.47873 16.8867L9.07762 19.2824L10.927 19.281L11.5246 16.884C11.54 16.8228 11.5713 16.7668 11.6152 16.7215C11.659 16.6762 11.7141 16.6432 11.7747 16.6259C12.347 16.4645 12.8966 16.2317 13.4107 15.9329C13.5241 15.8662 13.6621 15.8689 13.7742 15.9356L15.9104 17.2188L17.2196 15.9069L15.9364 13.7733C15.9033 13.7184 15.8855 13.6556 15.8847 13.5914C15.884 13.5273 15.9005 13.4641 15.9324 13.4085C16.2278 12.8963 16.4546 12.3507 16.6087 11.7818C16.6253 11.7201 16.6581 11.664 16.7037 11.6193C16.7493 11.5746 16.8061 11.543 16.8681 11.5277L19.283 10.9221V9.07393L16.8681 8.46967C16.8061 8.45423 16.7494 8.42253 16.7038 8.37786C16.6582 8.33319 16.6254 8.27716 16.6087 8.21556C16.4539 7.64614 16.2266 7.09897 15.9324 6.58752C15.9009 6.53198 15.8847 6.46908 15.8854 6.40523C15.8861 6.34138 15.9037 6.27887 15.9364 6.22403L17.2169 4.0891L15.909 2.7812L13.7728 4.06309C13.7183 4.09669 13.6556 4.11471 13.5915 4.11518C13.5274 4.11565 13.4644 4.09855 13.4094 4.06576C12.8947 3.76839 12.3452 3.53608 11.7734 3.37413C11.7125 3.35721 11.6573 3.32438 11.6133 3.27901C11.5693 3.23364 11.5383 3.17738 11.5233 3.11602L10.9244 0.717647H9.07496L8.47206 3.13002C8.45648 3.1919 8.42475 3.24854 8.3801 3.29412C8.33545 3.33971 8.27949 3.37261 8.21795 3.38947C7.65105 3.54287 7.10285 3.77097 6.58731 4.0671C6.53219 4.09984 6.46912 4.11678 6.40501 4.11607C6.3409 4.11537 6.27821 4.09704 6.22382 4.06309L4.0903 2.78254L2.78244 4.09177L4.06296 6.22403C4.09612 6.279 4.11387 6.34188 4.11434 6.40608C4.11481 6.47027 4.09798 6.53341 4.06563 6.58885C3.76743 7.10416 3.53465 7.65465 3.37269 8.22756C3.35554 8.28868 3.3225 8.34415 3.27692 8.38832C3.23135 8.43249 3.17486 8.46379 3.11324 8.47901L0.717613 9.0766V10.9261L3.12991 11.5303C3.19185 11.5458 3.24856 11.5775 3.29416 11.6221C3.33977 11.6668 3.37262 11.7228 3.38936 11.7844C3.54275 12.35 3.76951 12.8983 4.0683 13.4138C4.10045 13.4694 4.11703 13.5326 4.11633 13.5968C4.11563 13.661 4.09765 13.7238 4.06429 13.7786L2.78379 15.9096L4.09297 17.2201L6.22649 15.9382C6.28218 15.9044 6.34606 15.8864 6.41123 15.8862V15.8862ZM10.0027 7.94812C9.45878 7.94882 8.93739 8.16519 8.55282 8.54978C8.16824 8.93437 7.95188 9.45577 7.95118 9.99966C7.95188 10.5436 8.16824 11.065 8.55282 11.4496C8.93739 11.8341 9.45878 12.0505 10.0027 12.0512C10.5461 12.05 11.0669 11.8334 11.451 11.4488C11.835 11.0643 12.051 10.5431 12.0515 9.99966C12.051 9.45618 11.835 8.93507 11.451 8.55052C11.0669 8.16597 10.5461 7.94935 10.0027 7.94812V7.94812ZM10.0027 12.7695C9.26846 12.7688 8.56455 12.4768 8.04539 11.9577C7.52624 11.4385 7.23427 10.7346 7.23356 10.0003C7.23427 9.26612 7.52624 8.56217 8.04539 8.043C8.56455 7.52382 9.26846 7.23184 10.0027 7.23113C10.7365 7.23219 11.4399 7.52437 11.9586 8.04355C12.4773 8.56272 12.7687 9.26647 12.7691 10.0003C12.7687 10.7342 12.4773 11.438 11.9586 11.9571C11.4399 12.4763 10.7365 12.7685 10.0027 12.7695V12.7695Z" />
</svg>
