<svg width="22" height="22" viewBox="0 0 22 22" xmlns="http://www.w3.org/2000/svg">
	<path d="M13.1428 11.0011C13.1428 12.1839 12.1839 13.1428 11.0011 13.1428C9.81826 13.1428 8.85938 12.1839 8.85938 11.0011C8.85938 9.81826 9.81826 8.85938 11.0011 8.85938C12.1839 8.85938 13.1428 9.81826 13.1428 11.0011Z" stroke-width="1.5" />
	<path d="M9.32873 2.33586C9.73107 0.554711 12.2689 0.554713 12.6713 2.33586L12.8134 2.96488C13.0741 4.11925 14.3988 4.66796 15.3995 4.03608L15.9447 3.69176C17.4887 2.71679 19.2832 4.51134 18.3082 6.0553L17.9639 6.60055C17.332 7.60119 17.8808 8.92589 19.0351 9.18664L19.6641 9.32873C21.4453 9.73107 21.4453 12.2689 19.6641 12.6713L19.0351 12.8134C17.8808 13.0741 17.332 14.3988 17.9639 15.3995L18.3082 15.9447C19.2832 17.4887 17.4887 19.2832 15.9447 18.3082L15.3995 17.9639C14.3988 17.332 13.0741 17.8808 12.8134 19.0351L12.6713 19.6641C12.2689 21.4453 9.73107 21.4453 9.32873 19.6641L9.18664 19.0351C8.92589 17.8808 7.60119 17.332 6.60055 17.9639L6.0553 18.3082C4.51134 19.2832 2.71679 17.4887 3.69177 15.9447L4.03608 15.3995C4.66796 14.3988 4.11925 13.0741 2.96488 12.8134L2.33586 12.6713C0.554711 12.2689 0.554713 9.73107 2.33586 9.32873L2.96488 9.18664C4.11925 8.92589 4.66796 7.60119 4.03608 6.60055L3.69176 6.0553C2.71679 4.51134 4.51134 2.71679 6.0553 3.69177L6.60055 4.03608C7.60119 4.66796 8.92589 4.11925 9.18664 2.96488L9.32873 2.33586Z" stroke-width="1.5" />
</svg>
