<svg width="18" height="18" viewBox="0 0 18 18" fill="none" xmlns="http://www.w3.org/2000/svg">
<path d="M16.5003 8.16602H15.6087C15.4227 6.69933 14.7544 5.33608 13.709 4.29067C12.6636 3.24526 11.3003 2.57701 9.83366 2.39102V1.49935C9.83366 1.27834 9.74586 1.06637 9.58958 0.910093C9.4333 0.753813 9.22134 0.666016 9.00033 0.666016C8.77931 0.666016 8.56735 0.753813 8.41107 0.910093C8.25479 1.06637 8.16699 1.27834 8.16699 1.49935V2.39102C6.70031 2.57701 5.33706 3.24526 4.29165 4.29067C3.24624 5.33608 2.57799 6.69933 2.39199 8.16602H1.50033C1.27931 8.16602 1.06735 8.25381 0.91107 8.41009C0.75479 8.56637 0.666992 8.77834 0.666992 8.99935C0.666992 9.22036 0.75479 9.43232 0.91107 9.5886C1.06735 9.74489 1.27931 9.83268 1.50033 9.83268H2.39199C2.57799 11.2994 3.24624 12.6626 4.29165 13.708C5.33706 14.7534 6.70031 15.4217 8.16699 15.6077V16.4993C8.16699 16.7204 8.25479 16.9323 8.41107 17.0886C8.56735 17.2449 8.77931 17.3327 9.00033 17.3327C9.22134 17.3327 9.4333 17.2449 9.58958 17.0886C9.74586 16.9323 9.83366 16.7204 9.83366 16.4993V15.6077C11.3003 15.4217 12.6636 14.7534 13.709 13.708C14.7544 12.6626 15.4227 11.2994 15.6087 9.83268H16.5003C16.7213 9.83268 16.9333 9.74489 17.0896 9.5886C17.2459 9.43232 17.3337 9.22036 17.3337 8.99935C17.3337 8.77834 17.2459 8.56637 17.0896 8.41009C16.9333 8.25381 16.7213 8.16602 16.5003 8.16602ZM9.00033 13.9993C8.01142 13.9993 7.04472 13.7061 6.22247 13.1567C5.40023 12.6073 4.75937 11.8264 4.38093 10.9128C4.00249 9.99914 3.90347 8.9938 4.0964 8.0239C4.28933 7.05399 4.76553 6.16308 5.46479 5.46382C6.16405 4.76455 7.05497 4.28835 8.02487 4.09542C8.99478 3.9025 10.0001 4.00151 10.9137 4.37995C11.8274 4.75839 12.6083 5.39925 13.1577 6.2215C13.7071 7.04374 14.0003 8.01044 14.0003 8.99935C14.0003 10.3254 13.4735 11.5972 12.5359 12.5349C11.5982 13.4726 10.3264 13.9993 9.00033 13.9993ZM9.00033 6.49935C8.50587 6.49935 8.02252 6.64597 7.6114 6.92068C7.20028 7.19538 6.87985 7.58583 6.69063 8.04264C6.50141 8.49946 6.4519 9.00212 6.54836 9.48708C6.64483 9.97203 6.88293 10.4175 7.23256 10.7671C7.58219 11.1167 8.02765 11.3548 8.5126 11.4513C8.99755 11.5478 9.50022 11.4983 9.95703 11.309C10.4138 11.1198 10.8043 10.7994 11.079 10.3883C11.3537 9.97715 11.5003 9.4938 11.5003 8.99935C11.5003 8.33631 11.2369 7.70042 10.7681 7.23158C10.2993 6.76274 9.66337 6.49935 9.00033 6.49935ZM9.00033 9.83268C8.83551 9.83268 8.67439 9.78381 8.53735 9.69224C8.40031 9.60067 8.2935 9.47052 8.23043 9.31825C8.16735 9.16598 8.15085 8.99842 8.183 8.83677C8.21516 8.67512 8.29453 8.52664 8.41107 8.41009C8.52761 8.29355 8.6761 8.21418 8.83775 8.18203C8.9994 8.14987 9.16696 8.16638 9.31923 8.22945C9.4715 8.29252 9.60165 8.39933 9.69322 8.53637C9.78479 8.67341 9.83366 8.83453 9.83366 8.99935C9.83366 9.22036 9.74586 9.43232 9.58958 9.5886C9.4333 9.74489 9.22134 9.83268 9.00033 9.83268Z" fill="black"/>
</svg>
