<svg class="icon" width="20" height="20" viewBox="0 0 20 20" xmlns="http://www.w3.org/2000/svg">
	<path d="M19 9H17.93C17.7068 7.23998 16.9049 5.60408 15.6504 4.34959C14.3959 3.0951 12.76 2.29319 11 2.07V1C11 0.734784 10.8946 0.48043 10.7071 0.292893C10.5196 0.105357 10.2652 0 10 0C9.73478 0 9.48043 0.105357 9.29289 0.292893C9.10536 0.48043 9 0.734784 9 1V2.07C7.23998 2.29319 5.60408 3.0951 4.34959 4.34959C3.0951 5.60408 2.29319 7.23998 2.07 9H1C0.734784 9 0.48043 9.10536 0.292893 9.29289C0.105357 9.48043 0 9.73478 0 10C0 10.2652 0.105357 10.5196 0.292893 10.7071C0.48043 10.8946 0.734784 11 1 11H2.07C2.29319 12.76 3.0951 14.3959 4.34959 15.6504C5.60408 16.9049 7.23998 17.7068 9 17.93V19C9 19.2652 9.10536 19.5196 9.29289 19.7071C9.48043 19.8946 9.73478 20 10 20C10.2652 20 10.5196 19.8946 10.7071 19.7071C10.8946 19.5196 11 19.2652 11 19V17.93C12.76 17.7068 14.3959 16.9049 15.6504 15.6504C16.9049 14.3959 17.7068 12.76 17.93 11H19C19.2652 11 19.5196 10.8946 19.7071 10.7071C19.8946 10.5196 20 10.2652 20 10C20 9.73478 19.8946 9.48043 19.7071 9.29289C19.5196 9.10536 19.2652 9 19 9ZM10 16C8.81331 16 7.65327 15.6481 6.66658 14.9888C5.67988 14.3295 4.91085 13.3925 4.45672 12.2961C4.0026 11.1997 3.88378 9.99334 4.11529 8.82946C4.3468 7.66557 4.91824 6.59647 5.75736 5.75736C6.59647 4.91824 7.66557 4.3468 8.82946 4.11529C9.99334 3.88378 11.1997 4.0026 12.2961 4.45672C13.3925 4.91085 14.3295 5.67988 14.9888 6.66658C15.6481 7.65327 16 8.81331 16 10C16 11.5913 15.3679 13.1174 14.2426 14.2426C13.1174 15.3679 11.5913 16 10 16ZM10 7C9.40666 7 8.82664 7.17595 8.33329 7.50559C7.83994 7.83524 7.45542 8.30377 7.22836 8.85195C7.0013 9.40013 6.94189 10.0033 7.05764 10.5853C7.1734 11.1672 7.45912 11.7018 7.87868 12.1213C8.29824 12.5409 8.83279 12.8266 9.41473 12.9424C9.99667 13.0581 10.5999 12.9987 11.1481 12.7716C11.6962 12.5446 12.1648 12.1601 12.4944 11.6667C12.8241 11.1734 13 10.5933 13 10C13 9.20435 12.6839 8.44129 12.1213 7.87868C11.5587 7.31607 10.7956 7 10 7ZM10 11C9.80222 11 9.60888 10.9414 9.44443 10.8315C9.27998 10.7216 9.15181 10.5654 9.07612 10.3827C9.00043 10.2 8.98063 9.99889 9.01921 9.80491C9.0578 9.61093 9.15304 9.43275 9.29289 9.29289C9.43275 9.15304 9.61093 9.0578 9.80491 9.01921C9.99889 8.98063 10.2 9.00043 10.3827 9.07612C10.5654 9.15181 10.7216 9.27998 10.8315 9.44443C10.9414 9.60888 11 9.80222 11 10C11 10.2652 10.8946 10.5196 10.7071 10.7071C10.5196 10.8946 10.2652 11 10 11Z" />
</svg>
