<svg width="20" height="21" viewBox="0 0 20 21" fill="none" xmlns="http://www.w3.org/2000/svg">
<path d="M13.9999 15C14.2652 15 14.5195 14.8946 14.707 14.7071C14.8946 14.5196 14.9999 14.2652 14.9999 14C15.0048 13.9334 15.0048 13.8666 14.9999 13.8C14.989 13.7374 14.9688 13.6767 14.9399 13.62C14.9181 13.5563 14.8878 13.4957 14.8499 13.44L14.7299 13.29C14.6327 13.2017 14.5211 13.1306 14.3999 13.08C14.1565 12.98 13.8834 12.98 13.6399 13.08C13.5188 13.1306 13.4071 13.2017 13.3099 13.29L13.1899 13.44C13.1521 13.4957 13.1218 13.5563 13.0999 13.62C13.0711 13.6767 13.0509 13.7374 13.0399 13.8C13.035 13.8666 13.035 13.9334 13.0399 14C13.0399 14.2652 13.1453 14.5196 13.3328 14.7071C13.5204 14.8946 13.7747 15 14.0399 15H13.9999ZM15.9999 0H3.99994C3.20429 0 2.44123 0.316071 1.87862 0.87868C1.31601 1.44129 0.999939 2.20435 0.999939 3V15C1.00149 15.464 1.11067 15.9214 1.31889 16.3361C1.52711 16.7508 1.8287 17.1116 2.19994 17.39L1.28994 18.29C1.19621 18.383 1.12182 18.4936 1.07105 18.6154C1.02028 18.7373 0.994141 18.868 0.994141 19C0.994141 19.132 1.02028 19.2627 1.07105 19.3846C1.12182 19.5064 1.19621 19.617 1.28994 19.71C1.3829 19.8037 1.4935 19.8781 1.61536 19.9289C1.73722 19.9797 1.86793 20.0058 1.99994 20.0058C2.13195 20.0058 2.26266 19.9797 2.38452 19.9289C2.50638 19.8781 2.61698 19.8037 2.70994 19.71L4.40994 18H15.5899L17.2899 19.71C17.3829 19.8037 17.4935 19.8781 17.6154 19.9289C17.7372 19.9797 17.8679 20.0058 17.9999 20.0058C18.132 20.0058 18.2627 19.9797 18.3845 19.9289C18.5064 19.8781 18.617 19.8037 18.7099 19.71C18.8037 19.617 18.8781 19.5064 18.9288 19.3846C18.9796 19.2627 19.0057 19.132 19.0057 19C19.0057 18.868 18.9796 18.7373 18.9288 18.6154C18.8781 18.4936 18.8037 18.383 18.7099 18.29L17.7999 17.39C18.1712 17.1116 18.4728 16.7508 18.681 16.3361C18.8892 15.9214 18.9984 15.464 18.9999 15V3C18.9999 2.20435 18.6839 1.44129 18.1213 0.87868C17.5587 0.316071 16.7956 0 15.9999 0ZM2.99994 6H8.99994V10H2.99994V6ZM16.9999 15C16.9999 15.2652 16.8946 15.5196 16.707 15.7071C16.5195 15.8946 16.2652 16 15.9999 16H3.99994C3.73472 16 3.48037 15.8946 3.29283 15.7071C3.1053 15.5196 2.99994 15.2652 2.99994 15V12H16.9999V15ZM16.9999 10H10.9999V6H16.9999V10ZM16.9999 4H2.99994V3C2.99994 2.73478 3.1053 2.48043 3.29283 2.29289C3.48037 2.10536 3.73472 2 3.99994 2H15.9999C16.2652 2 16.5195 2.10536 16.707 2.29289C16.8946 2.48043 16.9999 2.73478 16.9999 3V4ZM5.99994 15C6.26516 15 6.51951 14.8946 6.70705 14.7071C6.89458 14.5196 6.99994 14.2652 6.99994 14C7.00485 13.9334 7.00485 13.8666 6.99994 13.8C6.98899 13.7374 6.96877 13.6767 6.93994 13.62C6.91805 13.5563 6.88779 13.4957 6.84994 13.44L6.72994 13.29C6.63274 13.2017 6.52112 13.1306 6.39994 13.08C6.15648 12.98 5.8834 12.98 5.63994 13.08C5.51875 13.1306 5.40714 13.2017 5.30994 13.29L5.18994 13.44C5.15209 13.4957 5.12183 13.5563 5.09994 13.62C5.05711 13.6742 5.02334 13.735 4.99994 13.8C4.99503 13.8666 4.99503 13.9334 4.99994 14C5.00104 14.2623 5.10519 14.5137 5.28994 14.7C5.38255 14.7945 5.493 14.8697 5.61487 14.9212C5.73675 14.9727 5.86763 14.9995 5.99994 15Z" fill="black"/>
</svg>
