<svg width="20" height="20" viewBox="0 0 20 20" xmlns="http://www.w3.org/2000/svg">
	<path d="M14.4416 14.9957C14.7361 14.9957 15.0185 14.8903 15.2268 14.7028C15.435 14.5154 15.552 14.2611 15.552 13.9959C15.5574 13.9294 15.5574 13.8626 15.552 13.796C15.5398 13.7334 15.5174 13.6727 15.4854 13.6161C15.461 13.5523 15.4274 13.4918 15.3854 13.4361L15.2522 13.2861C15.1442 13.1978 15.0203 13.1268 14.8857 13.0762C14.6154 12.9762 14.3122 12.9762 14.0418 13.0762C13.9073 13.1268 13.7833 13.1978 13.6754 13.2861L13.5422 13.4361C13.5001 13.4918 13.4665 13.5523 13.4422 13.6161C13.4102 13.6727 13.3878 13.7334 13.3756 13.796C13.3702 13.8626 13.3702 13.9294 13.3756 13.9959C13.3756 14.2611 13.4926 14.5154 13.7008 14.7028C13.9091 14.8903 14.1915 14.9957 14.486 14.9957H14.4416ZM16.6624 0H3.33763C2.45414 0 1.60684 0.315979 0.982121 0.878425C0.357402 1.44087 0.00643845 2.20371 0.00643845 2.99913V14.9957C0.00815819 15.4596 0.129389 15.9168 0.360598 16.3314C0.591807 16.746 0.92669 17.1066 1.33891 17.385L0.328453 18.2847C0.224378 18.3776 0.14177 18.4882 0.0853971 18.61C0.0290238 18.7319 0 18.8625 0 18.9945C0 19.1265 0.0290238 19.2571 0.0853971 19.379C0.14177 19.5008 0.224378 19.6113 0.328453 19.7043C0.431679 19.798 0.55449 19.8724 0.689802 19.9231C0.825114 19.9739 0.970249 20 1.11683 20C1.26342 20 1.40855 19.9739 1.54387 19.9231C1.67918 19.8724 1.80199 19.798 1.90522 19.7043L3.79289 17.9948H16.2071L18.0948 19.7043C18.198 19.798 18.3208 19.8724 18.4561 19.9231C18.5914 19.9739 18.7366 20 18.8832 20C19.0298 20 19.1749 19.9739 19.3102 19.9231C19.4455 19.8724 19.5683 19.798 19.6715 19.7043C19.7756 19.6113 19.8582 19.5008 19.9146 19.379C19.971 19.2571 20 19.1265 20 18.9945C20 18.8625 19.971 18.7319 19.9146 18.61C19.8582 18.4882 19.7756 18.3776 19.6715 18.2847L18.6611 17.385C19.0733 17.1066 19.4082 16.746 19.6394 16.3314C19.8706 15.9168 19.9918 15.4596 19.9936 14.9957V2.99913C19.9936 2.20371 19.6426 1.44087 19.0179 0.878425C18.3932 0.315979 17.5459 0 16.6624 0ZM2.22723 5.99826H8.8896V9.9971H2.22723V5.99826ZM17.7728 14.9957C17.7728 15.2608 17.6558 15.5151 17.4475 15.7026C17.2393 15.89 16.9569 15.9954 16.6624 15.9954H3.33763C3.04313 15.9954 2.7607 15.89 2.55246 15.7026C2.34422 15.5151 2.22723 15.2608 2.22723 14.9957V11.9965H17.7728V14.9957ZM17.7728 9.9971H11.1104V5.99826H17.7728V9.9971ZM17.7728 3.99884H2.22723V2.99913C2.22723 2.73399 2.34422 2.47971 2.55246 2.29223C2.7607 2.10475 3.04313 1.99942 3.33763 1.99942H16.6624C16.9569 1.99942 17.2393 2.10475 17.4475 2.29223C17.6558 2.47971 17.7728 2.73399 17.7728 2.99913V3.99884ZM5.55842 14.9957C5.85291 14.9957 6.13535 14.8903 6.34358 14.7028C6.55182 14.5154 6.66881 14.2611 6.66881 13.9959C6.67426 13.9294 6.67426 13.8626 6.66881 13.796C6.65666 13.7334 6.6342 13.6727 6.60219 13.6161C6.57788 13.5523 6.54428 13.4918 6.50225 13.4361L6.36901 13.2861C6.26107 13.1978 6.13714 13.1268 6.00257 13.0762C5.73224 12.9762 5.42901 12.9762 5.15867 13.0762C5.02411 13.1268 4.90018 13.1978 4.79224 13.2861L4.659 13.4361C4.61697 13.4918 4.58337 13.5523 4.55906 13.6161C4.5115 13.6702 4.474 13.731 4.44802 13.796C4.44257 13.8626 4.44257 13.9294 4.44802 13.9959C4.44925 14.2582 4.5649 14.5095 4.77004 14.6957C4.87287 14.7902 4.99551 14.8653 5.13084 14.9168C5.26617 14.9683 5.4115 14.9951 5.55842 14.9957V14.9957Z" />
</svg>
