<svg class="icon" width="19" height="20" viewBox="0 0 19 20" xmlns="http://www.w3.org/2000/svg">
	<path fill-rule="evenodd" clip-rule="evenodd" d="M10.926 5.06298C12.6382 5.06298 14.0263 3.92959 14.0263 2.53149C14.0263 1.13339 12.6382 0 10.926 0C9.21367 0 7.82559 1.13339 7.82559 2.53149C7.82559 3.92959 9.21367 5.06298 10.926 5.06298ZM6.28728 9.00065C6.64854 8.86688 7.00883 8.76445 7.3428 8.69458L6.39813 13.3226C6.3495 13.5608 6.47818 13.7873 6.68399 13.8794C6.51324 14.1814 6.28057 14.5218 5.96779 14.8873C5.08141 15.923 3.59641 17.1009 1.24534 18.0608C0.734025 18.2695 0.488746 18.8533 0.697493 19.3646C0.90624 19.8759 1.48997 20.1212 2.00128 19.9124C4.6108 18.8471 6.36983 17.4935 7.48734 16.1876C8.14917 15.4143 8.6058 14.632 8.86256 13.9226H10.6918C10.8403 13.9226 10.9801 13.8578 11.0714 13.7407C11.09 13.7169 11.1101 13.6909 11.1317 13.6628C11.9868 13.7032 13.0686 13.9928 13.8225 14.6683C14.5566 15.3263 15.1533 16.5051 14.6037 18.7487C14.4723 19.2851 14.8006 19.8265 15.3371 19.9579C15.8735 20.0893 16.4149 19.7609 16.5463 19.2245C17.2368 16.4052 16.5417 14.4196 15.1572 13.1789C14.3165 12.4255 13.2915 12.0109 12.3515 11.8117C12.7162 11.1518 13.045 10.4115 13.1852 9.70586C13.4767 9.85982 13.7726 10.0076 14.0629 10.1446C14.6221 10.4087 15.1867 10.6456 15.6907 10.8189C16.1609 10.9806 16.6876 11.1264 17.1252 11.1264C17.6774 11.1264 18.1252 10.6787 18.1252 10.1264C18.1252 9.57411 17.6774 9.12639 17.1252 9.12639C17.046 9.12639 16.7912 9.08236 16.3409 8.92757C15.9245 8.78441 15.4298 8.57833 14.9168 8.33611C14.1416 7.97003 13.3833 7.54931 12.8283 7.18062C12.7466 6.96015 12.6671 6.76541 12.6044 6.61792C12.5287 6.43954 12.3527 6.32812 12.1588 6.32812H8.23409C8.04019 6.32812 7.86815 6.43948 7.7856 6.60697C7.69095 6.61555 7.59694 6.62625 7.50427 6.63861C6.90399 6.71868 6.24074 6.88518 5.59281 7.12509C4.35186 7.58458 2.92452 8.40558 2.25074 9.65038C1.98784 10.1361 2.16846 10.7429 2.65416 11.0058C3.13986 11.2687 3.74672 11.0881 4.00961 10.6024C4.33228 10.0063 5.18997 9.40695 6.28728 9.00065Z" />
</svg>
